<svg width="281" height="193" viewBox="0 0 281 193" fill="none" xmlns="http://www.w3.org/2000/svg">
<rect width="281" height="193" rx="12" fill="#CCD024" fill-opacity="0.5"/>
<path d="M119.792 123.125C118.165 123.125 116.772 122.546 115.615 121.388C114.457 120.231 113.877 118.837 113.875 117.208V75.7917C113.875 74.1646 114.455 72.7722 115.615 71.6145C116.774 70.4568 118.167 69.877 119.792 69.875H161.208C162.835 69.875 164.229 70.4548 165.388 71.6145C166.548 72.7742 167.127 74.1666 167.125 75.7917V117.208C167.125 118.835 166.546 120.229 165.388 121.388C164.231 122.548 162.837 123.127 161.208 123.125H119.792ZM122.75 111.292H158.25L147.156 96.5L138.281 108.333L131.625 99.4583L122.75 111.292Z" fill="#FFD233"/>
</svg>
