<svg width="281" height="193" viewBox="0 0 281 193" fill="none" xmlns="http://www.w3.org/2000/svg">
<rect width="281" height="193" rx="12" fill="#373712" fill-opacity="0.61"/>
<path d="M158.25 105.375V114.25H149.375V120.167H158.25V129.042H164.167V120.167H173.042V114.25H164.167V105.375H158.25ZM144.346 123.125H119.792C116.538 123.125 113.875 120.463 113.875 117.208V75.7917C113.875 72.5375 116.538 69.875 119.792 69.875H161.208C164.463 69.875 167.125 72.5375 167.125 75.7917V100.346C165.35 99.7542 163.279 99.4583 161.208 99.4583C157.954 99.4583 154.7 100.346 152.038 102.121L147.896 96.5L137.542 109.813L130.146 100.938L119.792 114.25H143.754C143.458 115.138 143.458 116.321 143.458 117.208C143.458 119.279 143.754 121.35 144.346 123.125Z" fill="#FFD233" fill-opacity="0.5"/>
</svg>
