<svg width="24" height="24" viewBox="0 0 24 24" fill="none" xmlns="http://www.w3.org/2000/svg">
<path d="M12 13C13.1046 13 14 12.1046 14 11C14 9.89543 13.1046 9 12 9C10.8954 9 10 9.89543 10 11C10 12.1046 10.8954 13 12 13Z" stroke="white" stroke-width="1.5" stroke-linecap="round" stroke-linejoin="round"/>
<path d="M4.00001 17.001C2.69898 15.2711 1.9969 13.1645 2.00001 11C2.00001 5.477 6.47701 1 12 1C17.523 1 22 5.477 22 11C22 13.252 21.256 15.33 20 17.001" stroke="white" stroke-width="1.5" stroke-linecap="round" stroke-linejoin="round"/>
<path d="M7.528 15C6.75579 14.1367 6.24997 13.0684 6.07158 11.9239C5.8932 10.7795 6.04989 9.60784 6.52274 8.55048C6.99558 7.49312 7.76437 6.59522 8.73629 5.96518C9.70822 5.33514 10.8417 4.99988 12 4.99988C13.1583 4.99988 14.2918 5.33514 15.2637 5.96518C16.2356 6.59522 17.0044 7.49312 17.4773 8.55048C17.9501 9.60784 18.1068 10.7795 17.9284 11.9239C17.75 13.0684 17.2442 14.1367 16.472 15M9.952 17.876C10.722 16.758 11.108 16.199 11.608 16.056C11.864 15.9814 12.136 15.9814 12.392 16.056C12.892 16.199 13.278 16.758 14.049 17.876C15.074 19.363 15.587 20.107 15.488 20.727C15.4391 21.0394 15.2953 21.3292 15.076 21.557C14.646 22 13.764 22 12 22C10.236 22 9.354 22 8.924 21.556C8.7049 21.3285 8.56107 21.0391 8.512 20.727C8.413 20.107 8.926 19.363 9.952 17.876Z" stroke="white" stroke-width="1.5" stroke-linecap="round" stroke-linejoin="round"/>
</svg>
