<svg width="24" height="25" viewBox="0 0 24 25" fill="none" xmlns="http://www.w3.org/2000/svg">
<path d="M6.75 7.25H18C19.245 7.25 20.25 8.255 20.25 9.5V10.25M9 20.75H3C2.40326 20.75 1.83097 20.5129 1.40901 20.091C0.987053 19.669 0.75 19.0967 0.75 18.5V5.75C0.75 5.35218 0.908035 4.97064 1.18934 4.68934C1.47064 4.40804 1.85218 4.25 2.25 4.25H9.75C10.1478 4.25 10.5294 4.40804 10.8107 4.68934C11.092 4.97064 11.25 5.35218 11.25 5.75V7.25" stroke="white" stroke-linecap="round" stroke-linejoin="round"/>
<path d="M19.3845 18.356H11.25L15.318 11L19.3845 18.356Z" stroke="white" stroke-linejoin="round"/>
<path d="M17.493 14.9615C18.2305 14.5416 19.0843 14.3788 19.9224 14.4982C20.7606 14.6176 21.5366 15.0126 22.1305 15.6221C22.7243 16.2316 23.1031 17.0218 23.2082 17.8705C23.3133 18.7193 23.1389 19.5794 22.712 20.318C22.2851 21.0566 21.6294 21.6326 20.8462 21.9571C20.063 22.2815 19.1958 22.3364 18.3787 22.1131C17.5616 21.8898 16.8399 21.4009 16.3252 20.7218C15.8105 20.0428 15.5314 19.2113 15.531 18.356" stroke="white" stroke-linejoin="round"/>
</svg>
