<svg width="24" height="24" viewBox="0 0 24 24" fill="none" xmlns="http://www.w3.org/2000/svg">
<path d="M4.40986 14.5259L7.81186 11.1239L10.6409 13.9529L13.7979 10.7959L12.0049 9.00291H17.0049V14.0029L15.2119 12.2099L10.6409 16.7809L7.81186 13.9529L5.33786 16.4269C6.46127 18.1178 8.18548 19.3183 10.1611 19.7852C12.1367 20.2522 14.2159 19.9506 15.9775 18.9416C17.739 17.9326 19.0511 16.2917 19.6478 14.3513C20.2445 12.411 20.0813 10.3163 19.1911 8.49184C18.301 6.66737 16.7505 5.24953 14.8539 4.52565C12.9573 3.80177 10.8565 3.82598 8.97705 4.59338C7.09764 5.36077 5.58026 6.81396 4.73239 8.65846C3.88452 10.503 3.76958 12.6008 4.41086 14.5269M2.87386 16.0849L2.86386 16.0749L2.86786 16.0709C2.29879 14.7906 2.00511 13.405 2.00586 12.0039C2.00586 6.48091 6.48286 2.00391 12.0059 2.00391C17.5289 2.00391 22.0059 6.48091 22.0059 12.0039C22.0059 17.5269 17.5289 22.0039 12.0059 22.0039C7.93586 22.0039 4.43586 19.5739 2.87386 16.0849Z" fill="white"/>
</svg>
