<svg width="24" height="25" viewBox="0 0 24 25" fill="none" xmlns="http://www.w3.org/2000/svg">
<path d="M8 10C8 11.7239 8.68482 13.3772 9.90381 14.5962C11.1228 15.8152 12.7761 16.5 14.5 16.5C16.2239 16.5 17.8772 15.8152 19.0962 14.5962C20.3152 13.3772 21 11.7239 21 10C21 8.27609 20.3152 6.62279 19.0962 5.40381C17.8772 4.18482 16.2239 3.5 14.5 3.5C12.7761 3.5 11.1228 4.18482 9.90381 5.40381C8.68482 6.62279 8 8.27609 8 10Z" stroke="white" stroke-width="2" stroke-linecap="round" stroke-linejoin="round"/>
<path d="M3 15C3 16.7239 3.68482 18.3772 4.90381 19.5962C6.12279 20.8152 7.77609 21.5 9.5 21.5C11.2239 21.5 12.8772 20.8152 14.0962 19.5962C15.3152 18.3772 16 16.7239 16 15C16 13.2761 15.3152 11.6228 14.0962 10.4038C12.8772 9.18482 11.2239 8.5 9.5 8.5C7.77609 8.5 6.12279 9.18482 4.90381 10.4038C3.68482 11.6228 3 13.2761 3 15Z" stroke="white" stroke-width="2" stroke-linecap="round" stroke-linejoin="round"/>
</svg>
