<svg width="24" height="24" viewBox="0 0 24 24" fill="none" xmlns="http://www.w3.org/2000/svg">
<path d="M2 12C2 17.523 6.477 22 12 22C13.821 22 15.53 21.512 17 20.663L17 15.75C16.4184 16.5265 15.6637 17.1567 14.7959 17.5905C13.9281 18.0243 12.9712 18.2498 12.001 18.249C10.3455 18.2485 8.75778 17.5911 7.5864 16.4213C6.41502 15.2514 5.75565 13.6645 5.753 12.009L5.75 12.013V4.19301C4.57861 5.12902 3.63319 6.31694 2.98398 7.66852C2.33476 9.0201 1.99844 10.5006 2 12ZM7 3.33801C8.51944 2.45874 10.2445 1.99712 12 2.00001C17.523 2.00001 22 6.47701 22 12C22.0014 13.4993 21.665 14.9796 21.0158 16.331C20.3666 17.6823 19.4212 18.8701 18.25 19.806L18.25 12C18.2494 10.6885 17.8362 9.41042 17.0689 8.34675C16.3017 7.28307 15.2193 6.4877 13.975 6.07327C12.7307 5.65883 11.3875 5.64633 10.1357 6.03753C8.88392 6.42873 7.7869 7.20381 7 8.25301V3.33801Z" fill="white"/>
<path d="M13.25 13.08V10.75H12.625V13.08C12.643 13.136 12.729 13.25 12.927 13.25C13.125 13.25 13.225 13.136 13.25 13.08ZM11.375 13.08V10.75H10.75V13.08C10.768 13.136 10.854 13.25 11.052 13.25C11.25 13.25 11.35 13.136 11.375 13.08Z" fill="white"/>
<path fill-rule="evenodd" clip-rule="evenodd" d="M12 17C10.6739 17 9.40215 16.4732 8.46447 15.5355C7.52678 14.5979 7 13.3261 7 12C7 10.6739 7.52678 9.40215 8.46447 8.46447C9.40215 7.52678 10.6739 7 12 7C13.3261 7 14.5979 7.52678 15.5355 8.46447C16.4732 9.40215 17 10.6739 17 12C17 13.3261 16.4732 14.5979 15.5355 15.5355C14.5979 16.4732 13.3261 17 12 17ZM9.5 9.5H14.5V13.123C14.5 14.003 13.669 14.499 13.005 14.499C12.473 14.499 12.135 14.27 12.035 14.156C11.758 14.431 11.255 14.499 11.038 14.499C10.085 14.522 9.5 13.714 9.5 13.274V9.5Z" fill="white"/>
</svg>
