<svg width="24" height="24" viewBox="0 0 24 24" fill="none" xmlns="http://www.w3.org/2000/svg">
<path d="M9.1 9.25039C9.46667 8.86706 9.896 8.56272 10.388 8.33739C10.88 8.11206 11.4173 7.99972 12 8.00039C12.5827 8.00106 13.1203 8.11372 13.613 8.33839C14.1057 8.56306 14.5347 8.86706 14.9 9.25039L19.95 6.42539L12.975 2.55039C12.675 2.36706 12.35 2.27539 12 2.27539C11.65 2.27539 11.325 2.36706 11.025 2.55039L4.05 6.42539L9.1 9.25039ZM11 21.4504V15.8754C10.1333 15.6421 9.41667 15.1714 8.85 14.4634C8.28333 13.7554 8 12.9344 8 12.0004C8 11.8171 8.00833 11.6421 8.025 11.4754C8.04167 11.3087 8.075 11.1504 8.125 11.0004L3 8.12539L3 15.8254C3 16.1921 3.09167 16.5297 3.275 16.8384C3.45833 17.1471 3.70833 17.3927 4.025 17.5754L11 21.4504ZM12 14.0004C12.55 14.0004 13.021 13.8047 13.413 13.4134C13.805 13.0221 14.0007 12.5511 14 12.0004C13.9993 11.4497 13.8037 10.9791 13.413 10.5884C13.0223 10.1977 12.5513 10.0017 12 10.0004C11.4487 9.99906 10.978 10.1951 10.588 10.5884C10.198 10.9817 10.002 11.4524 10 12.0004C9.998 12.5484 10.194 13.0194 10.588 13.4134C10.982 13.8074 11.4527 14.0031 12 14.0004ZM13 21.4504L19.975 17.5754C20.2917 17.3921 20.5417 17.1464 20.725 16.8384C20.9083 16.5304 21 16.1924 21 15.8244V8.12439L15.875 11.0004C15.925 11.1671 15.9583 11.3297 15.975 11.4884C15.9917 11.6471 16 11.8177 16 12.0004C16 12.9337 15.7167 13.7547 15.15 14.4634C14.5833 15.1721 13.8667 15.6427 13 15.8754V21.4504Z" fill="white"/>
</svg>
